<svg width="268" height="86" viewBox="0 0 268 86" fill="none" xmlns="http://www.w3.org/2000/svg">
<rect width="267.544" height="86" fill="#BE1622"/>
<path d="M27.6416 37.9075C31.062 29.5582 38.763 23.734 47.7267 23.734C56.6904 23.734 64.3914 29.5582 67.8118 37.9075C66.2073 26.6141 57.8286 18 47.7267 18C37.6248 18 29.2461 26.6141 27.6416 37.9075Z" fill="white"/>
<path d="M66.7285 60.1686C71.0409 55.6274 73.6938 49.4744 73.6938 42.7019C73.6938 32.1881 67.3135 23.1784 58.2282 19.3616C64.4695 23.4897 68.5965 30.5881 68.5965 38.6581C68.5965 46.7282 64.7446 53.3524 58.8509 57.5329V42.1142L52.2041 36.6159V64.672C52.2041 64.672 52.207 64.672 52.2099 64.672V68.0001H77.4531V60.1686H66.7314H66.7285Z" fill="white"/>
<path d="M32.4549 43.1325V53.7655C28.965 49.7159 26.8537 44.4387 26.8537 38.6611C26.8537 30.591 30.9807 23.4926 37.222 19.3645C28.1396 23.1784 21.7564 32.1911 21.7564 42.7019C21.7564 49.4745 24.4093 55.6274 28.7217 60.1686H18V68.0001H38.9076V39.9527L32.4549 35.141V43.1296V43.1325Z" fill="white"/>
<path d="M42.6206 48.7355V49.5792V51.1589V51.9996V60.5817V68.0001H43.2433H45.9947V53.1255V52.2469V50.641V49.7712V46.8678L49.3687 43.5281V35.7722L42.6206 28.5051V48.7355Z" fill="white"/>
<path d="M92.796 48.2481C92.7554 47.3346 92.3558 47.3055 91.5593 47.2938H88.8137C88.3532 47.2938 87.7218 47.2211 87.4351 47.8059C87.2729 48.155 87.2527 50.5958 87.4873 50.9652C87.8753 51.5907 88.4778 51.5092 89.0715 51.5092H91.2147C91.93 51.5092 92.5006 51.5616 92.7873 51.0671C92.88 50.9041 92.8887 50.7092 92.9089 50.3398H95.4112C95.4112 50.6889 95.4923 52.2569 94.9015 52.862C94.2788 53.5282 93.3289 53.5282 92.6338 53.5282H88.5299C87.5191 53.5282 86.3027 53.5398 85.5468 52.7893C84.7822 52.0096 84.7909 51.1165 84.7909 49.8452V48.9026C84.7909 47.8553 84.7504 46.8109 85.5149 46.0313C86.2593 45.2923 87.7218 45.272 88.5878 45.272H92.6019C93.633 45.272 94.4816 45.3651 95.0231 46.3076C95.2172 46.6567 95.2896 47.6808 95.278 48.2452H92.796V48.2481Z" fill="#1D1D1B"/>
<path d="M104.977 52.7921C104.314 52.1143 104.303 50.7208 104.303 50.1651V48.4632C104.303 47.8698 104.25 46.7003 104.977 45.9904C105.722 45.2428 106.898 45.2719 107.876 45.2719H111.899C112.878 45.2719 114.042 45.2602 114.798 45.9904C115.453 46.6072 115.369 47.8669 115.369 48.4632V50.1651C115.369 50.872 115.462 52.1143 114.798 52.7921C114.103 53.499 112.409 53.531 111.838 53.531H107.937C107.173 53.531 105.67 53.499 104.977 52.7921ZM112.759 50.9651C112.841 50.843 112.881 50.4211 112.881 49.9586V48.8414C112.881 48.3905 112.841 47.96 112.759 47.8378C112.403 47.221 111.647 47.2938 111.239 47.2938H108.441C108.033 47.2938 107.277 47.221 106.921 47.8378C106.84 47.96 106.799 48.3294 106.799 48.8414V49.9586C106.799 50.4298 106.84 50.84 106.921 50.9651C107.277 51.5906 108.033 51.5092 108.441 51.5092H111.239C111.647 51.5092 112.403 51.5906 112.759 50.9651Z" fill="#1D1D1B"/>
<path d="M128.074 45.2747L132.801 51.2443V45.2747H135.292V53.5309H131.422L126.705 47.6427V53.5309H124.214V45.2747H128.074Z" fill="#1D1D1B"/>
<path d="M151.629 48.1258C151.569 47.3869 151.262 47.3054 150.587 47.2938H147.798C147.45 47.2938 146.941 47.2327 146.715 47.6633C146.634 47.7971 146.654 48.1462 146.726 48.28C146.961 48.6495 147.696 48.6175 148.206 48.6175L151.259 48.6902C152.015 48.7222 153.587 48.5884 154.158 49.6444C154.505 50.3019 154.474 51.7972 154.065 52.4663C153.431 53.5223 151.563 53.534 150.717 53.534H146.613C146.124 53.534 145.009 53.4612 144.458 52.6525C144.192 52.2423 144.163 51.3608 144.172 50.8168H146.634C146.694 51.5761 147.135 51.515 147.604 51.515H150.523C150.871 51.515 151.595 51.5354 151.821 51.259C151.922 51.1252 151.922 50.8488 151.821 50.6219C151.658 50.2844 151.015 50.3339 150.309 50.3135L147.062 50.2408C146.266 50.2292 144.928 50.2524 144.418 49.2662C144.07 48.6204 144.07 46.8778 144.45 46.229C145.072 45.1817 146.269 45.2748 147.421 45.2748H151.67C152.333 45.2748 153.315 45.397 153.813 46.1767C154.1 46.5985 154.068 47.704 154.068 48.1258H151.627H151.629Z" fill="#1D1D1B"/>
<path d="M171.96 47.2936H168.427V53.5309H165.936V47.2936H162.475V45.2717H171.96V47.2936Z" fill="#1D1D1B"/>
<path d="M190.105 45.9933C190.606 46.6392 190.635 48.5069 190.453 49.1411C190.247 49.9295 189.758 50.0749 189.175 50.2989C189.471 50.392 189.665 50.4531 189.839 50.5549C190.603 51.0262 190.514 52.2277 190.514 52.9026V53.5281H188.023C188.023 52.5855 188.075 51.8873 187.777 51.6197C187.51 51.352 186.795 51.384 186.511 51.384H183.07V53.5281H180.58V45.2719H187.707C188.596 45.2719 189.526 45.2311 190.108 45.9904L190.105 45.9933ZM186.644 49.2662C186.992 49.2662 187.768 49.2982 188.043 48.8763C188.176 48.6611 188.176 47.9629 188.043 47.7068C187.797 47.2356 187.012 47.2967 186.664 47.2967H183.07V49.2662H186.644Z" fill="#1D1D1B"/>
<path d="M201.947 45.2747V49.3271C201.947 49.8508 201.886 50.7846 202.275 51.1832C202.671 51.573 203.326 51.5119 203.685 51.5119H205.707C205.932 51.5119 206.616 51.573 206.984 51.1948C207.311 50.8457 207.25 50.1388 207.25 49.3882V45.2747H209.741V50.1679C209.741 51.1017 209.834 52.0152 209.098 52.7745C208.31 53.5745 207.299 53.5338 206.228 53.5338H202.553C201.675 53.5338 200.968 53.6065 200.152 52.7658C199.375 51.9541 199.457 50.549 199.457 49.9032V45.2776H201.947V45.2747Z" fill="#1D1D1B"/>
<path d="M226.617 48.2478C226.577 47.3343 226.177 47.3052 225.381 47.2936H222.635C222.175 47.2936 221.543 47.2209 221.256 47.8056C221.094 48.1547 221.074 50.5955 221.309 50.965C221.697 51.5905 222.299 51.509 222.89 51.509H225.033C225.748 51.509 226.319 51.5614 226.606 51.0668C226.698 50.9039 226.707 50.709 226.727 50.3395H229.23C229.23 50.6886 229.311 52.2567 228.72 52.8618C228.097 53.528 227.147 53.528 226.452 53.528H222.348C221.337 53.528 220.121 53.5396 219.368 52.789C218.603 52.0094 218.612 51.1163 218.612 49.845V48.9024C218.612 47.8551 218.572 46.8107 219.336 46.031C220.081 45.2921 221.543 45.2717 222.409 45.2717H226.423C227.454 45.2717 228.303 45.3648 228.844 46.3074C229.038 46.6565 229.111 47.6805 229.099 48.2449H226.617V48.2478Z" fill="#1D1D1B"/>
<path d="M246.998 47.2936H243.464V53.5309H240.974V47.2936H237.513V45.2717H246.998V47.2936Z" fill="#1D1D1B"/>
<path d="M111.87 28.8527C111.87 27.3952 112.07 24.3114 110.471 22.8045C108.621 21.0241 105.774 21.0502 103.376 21.0502H93.5315C91.1335 21.0502 88.2633 20.9746 86.4387 22.8045C84.6663 24.5354 84.7879 27.3981 84.7879 28.8527V33.0157C84.7879 34.3685 84.814 37.7838 86.4387 39.4391C88.1359 41.1701 91.8112 41.2457 93.6821 41.2457H103.225C104.624 41.2457 108.771 41.173 110.468 39.4391C112.09 37.7838 111.867 34.7466 111.867 33.0157V28.8527H111.87ZM105.777 32.5153C105.777 33.6441 105.678 34.671 105.475 34.9736C104.604 36.5038 102.753 36.3031 101.754 36.3031H94.9101C93.9109 36.3031 92.0631 36.5038 91.1885 34.9736C90.9886 34.671 90.8902 33.6702 90.8902 32.5153V29.7778C90.8902 28.5239 90.9886 27.6221 91.1885 27.3195C92.0631 25.8126 93.9138 25.99 94.9101 25.99H101.754C102.753 25.99 104.604 25.8155 105.475 27.3195C105.675 27.6221 105.777 28.6752 105.777 29.7778V32.5153Z" fill="white"/>
<path d="M131.729 33.9699L124.787 21.0503H115.244V41.2458H121.338V26.7697L129.433 41.2458H134.055L142.373 26.6941V41.2458H148.469V21.0503H138.677L131.729 33.9699Z" fill="white"/>
<path d="M202.828 29.7051H189.164V33.7925H196.682C196.682 34.4965 196.758 34.9736 196.509 35.4245C195.909 36.4544 194.337 36.3031 193.662 36.3031H186.943C185.969 36.3031 184.42 36.4514 183.571 35.1976C182.998 34.3452 183.021 28.2476 183.496 27.3661C184.322 25.8097 185.943 25.9871 188.391 25.9871H193.662C195.585 25.9871 196.535 25.8126 196.735 27.9945H202.68C202.68 26.2897 202.68 24.6838 201.98 23.5056C200.532 21.1695 197.134 21.0474 195.66 21.0474H185.619C183.873 21.0968 180.397 21.0968 178.622 22.8278C176.875 24.5849 177.023 27.2206 177.023 28.9516V33.1146C177.023 35.1976 177.023 37.7838 178.723 39.5643C180.548 41.4727 183.47 41.2429 184.944 41.2429H195.512C196.361 41.2196 200.158 41.1439 201.508 39.7621C203.008 38.2057 202.831 35.1976 202.831 34.0427V29.7022L202.828 29.7051Z" fill="white"/>
<path d="M213.666 21.0503L202.95 41.2487H209.695L211.52 37.6122H223.86L225.859 41.2487H232.529L221.639 21.0503H213.669H213.666ZM213.839 33.3707L217.639 25.8912L221.561 33.3707H213.842H213.839Z" fill="white"/>
<path d="M239.155 28.9342V21.0562H234.741V28.9342H227.833L230.226 33.3678H234.741V41.2487H239.155V33.3678H246.998V28.9342H239.155Z" fill="#1D1D1B"/>
<path d="M86.9453 57.8657C87.3971 57.8657 87.7621 58.0141 88.0401 58.3079C88.3181 58.6017 88.4542 58.9828 88.4542 59.4512C88.4542 59.7451 88.3963 60.0127 88.2805 60.2513C88.1646 60.4898 87.9995 60.6818 87.791 60.8214C88.0662 60.9407 88.2805 61.1356 88.4369 61.4062C88.5933 61.6767 88.6715 61.9909 88.6715 62.3459C88.6715 62.8346 88.5209 63.2448 88.2226 63.5706C87.9242 63.8994 87.5391 64.0623 87.0728 64.0623H84.7935V57.8657H86.9482H86.9453ZM86.7194 60.388C86.9308 60.388 87.0959 60.3182 87.2205 60.1756C87.345 60.0331 87.4058 59.8585 87.4058 59.652C87.4058 59.4454 87.345 59.2621 87.2205 59.1196C87.0959 58.977 86.9308 58.9072 86.7194 58.9072H85.8419V60.3851H86.7194V60.388ZM85.8419 63.0266H86.8787C87.1075 63.0266 87.29 62.9451 87.4232 62.7822C87.5593 62.6193 87.6259 62.4215 87.6259 62.1859C87.6259 61.9502 87.5593 61.7524 87.4232 61.5982C87.2871 61.4411 87.1075 61.3626 86.8787 61.3626H85.8419V63.0266Z" fill="white"/>
<path d="M96.5984 57.8657V61.4964C96.5984 62.2877 96.4072 62.9277 96.022 63.4164C95.6368 63.9052 95.1387 64.1525 94.5247 64.1525C93.9107 64.1525 93.4126 63.9139 93.0389 63.4397C92.6653 62.9655 92.48 62.3313 92.48 61.54V57.8657H93.5429V61.4964C93.5429 61.9211 93.6356 62.2644 93.8238 62.5233C94.0121 62.7822 94.2553 62.9131 94.5594 62.9131C94.8635 62.9131 95.1039 62.7822 95.2893 62.5233C95.4746 62.2644 95.5673 61.9211 95.5673 61.4964V57.8657H96.5984Z" fill="white"/>
<path d="M100.682 57.8657H101.76V64.0623H100.682V57.8657Z" fill="white"/>
<path d="M105.915 64.0652V57.8687H106.966V62.8608H109.315V64.0652H105.918H105.915Z" fill="white"/>
<path d="M114.702 57.8657C115.47 57.8657 116.104 58.1566 116.599 58.7414C117.095 59.3261 117.344 60.0592 117.344 60.9465C117.344 61.8338 117.089 62.5728 116.582 63.1692C116.075 63.7655 115.435 64.0623 114.668 64.0623H112.985V57.8657H114.702ZM114.036 62.8957H114.723C115.18 62.8957 115.557 62.7124 115.855 62.3459C116.153 61.9793 116.301 61.5196 116.301 60.964C116.301 60.4083 116.153 59.9516 115.855 59.588C115.557 59.2243 115.18 59.0439 114.723 59.0439H114.036V62.8957Z" fill="white"/>
<path d="M121.259 57.8657H122.337V64.0623H121.259V57.8657Z" fill="white"/>
<path d="M127.512 59.8847V64.0623H126.49V57.8657H127.573L129.791 61.9386V57.8657H130.814V64.0623H129.791L127.512 59.8847Z" fill="white"/>
<path d="M139.555 60.6991C139.563 60.8126 139.569 60.926 139.569 61.0453C139.563 61.9239 139.34 62.6628 138.9 63.2592C138.46 63.8556 137.892 64.1523 137.2 64.1523C136.508 64.1523 135.891 63.8498 135.413 63.2418C134.935 62.6337 134.695 61.8803 134.695 60.9842C134.695 60.0882 134.941 59.3289 135.43 58.7093C135.92 58.0896 136.522 57.7783 137.235 57.7783C137.472 57.7783 137.698 57.8103 137.91 57.8743C138.121 57.9383 138.298 58.0198 138.431 58.1129C138.567 58.206 138.686 58.302 138.787 58.3951C138.891 58.4882 138.964 58.5696 139.01 58.6336L139.071 58.7296L138.344 59.6867C138.335 59.6693 138.321 59.646 138.301 59.6169C138.28 59.5878 138.234 59.5326 138.164 59.454C138.095 59.3755 138.017 59.3056 137.939 59.2475C137.857 59.1893 137.753 59.134 137.623 59.0874C137.493 59.0409 137.356 59.0176 137.215 59.0176C136.789 59.0176 136.435 59.2038 136.157 59.5762C135.879 59.9486 135.737 60.414 135.737 60.9755C135.737 61.537 135.876 62.0024 136.157 62.3777C136.435 62.753 136.789 62.9392 137.215 62.9392C137.548 62.9392 137.831 62.8257 138.06 62.5988C138.289 62.3719 138.434 62.0635 138.492 61.6737H137.168V60.6991H139.558H139.555Z" fill="white"/>
<path d="M150.175 64.9497C150.149 64.938 150.108 64.9177 150.062 64.8886C150.013 64.8595 149.92 64.7926 149.784 64.6849C149.648 64.5773 149.517 64.4609 149.393 64.33C149.268 64.1991 149.132 64.0216 148.982 63.7976C148.831 63.5736 148.701 63.3351 148.591 63.082C148.481 62.8289 148.388 62.5176 148.313 62.1511C148.237 61.7845 148.2 61.3976 148.2 60.9903C148.2 60.583 148.237 60.1961 148.31 59.8266C148.382 59.4572 148.478 59.143 148.594 58.884C148.709 58.6251 148.837 58.3837 148.979 58.1568C149.118 57.9327 149.257 57.7524 149.399 57.6127C149.538 57.4731 149.665 57.3538 149.784 57.2549C149.9 57.1531 149.995 57.0833 150.068 57.0425L150.178 56.9814L150.618 57.8746C150.577 57.8978 150.525 57.9357 150.462 57.9851C150.398 58.0346 150.282 58.1509 150.114 58.3313C149.946 58.5117 149.801 58.7095 149.674 58.9248C149.549 59.1401 149.433 59.431 149.326 59.7975C149.222 60.1641 149.167 60.5539 149.167 60.967C149.167 61.3801 149.216 61.767 149.315 62.1307C149.413 62.4943 149.532 62.7882 149.674 63.0122C149.816 63.2362 149.958 63.4311 150.103 63.5969C150.247 63.7627 150.369 63.8791 150.47 63.9518L150.615 64.0566L150.175 64.9497Z" fill="white"/>
<path d="M155.654 61.7611L153.807 57.8657H155.023L156.205 60.4782L157.386 57.8657H158.548L156.7 61.7611V64.0623H155.657V61.7611H155.654Z" fill="white"/>
<path d="M162.177 56.9814C162.206 56.9931 162.244 57.0134 162.29 57.0425C162.339 57.0716 162.432 57.1385 162.568 57.2462C162.704 57.3538 162.834 57.4702 162.959 57.6011C163.084 57.732 163.22 57.9066 163.37 58.1335C163.521 58.3575 163.651 58.596 163.761 58.852C163.871 59.1051 163.964 59.4164 164.039 59.783C164.115 60.1495 164.152 60.5365 164.152 60.9437C164.152 61.351 164.115 61.7379 164.042 62.1074C163.97 62.4769 163.874 62.7911 163.758 63.05C163.642 63.3089 163.512 63.5504 163.373 63.7773C163.234 64.0013 163.095 64.1817 162.953 64.3213C162.814 64.4609 162.687 64.5802 162.568 64.6791C162.452 64.7809 162.357 64.8508 162.284 64.8915L162.174 64.9526L161.734 64.0595C161.774 64.0362 161.827 63.9984 161.893 63.9489C161.957 63.8995 162.073 63.7831 162.241 63.6027C162.409 63.4224 162.554 63.2245 162.681 63.0093C162.808 62.794 162.921 62.5031 163.028 62.1365C163.133 61.7699 163.185 61.3801 163.185 60.967C163.185 60.5539 163.136 60.167 163.037 59.8033C162.939 59.4397 162.82 59.1459 162.678 58.9219C162.536 58.6979 162.394 58.5029 162.249 58.3371C162.105 58.1713 161.983 58.0549 161.882 57.9822L161.737 57.8746L162.177 56.9814Z" fill="white"/>
<path d="M172.189 58.6889C172.667 59.2969 172.907 60.0504 172.907 60.9464C172.907 61.8424 172.661 62.6017 172.171 63.2214C171.682 63.841 171.079 64.1523 170.367 64.1523C169.655 64.1523 169.058 63.8498 168.58 63.2447C168.102 62.6396 167.862 61.889 167.862 60.993C167.862 60.0969 168.108 59.3376 168.597 58.7122C169.087 58.0896 169.689 57.7783 170.402 57.7783C171.114 57.7783 171.711 58.0809 172.189 58.6889ZM171.442 62.3545C171.722 61.9821 171.864 61.5195 171.864 60.9639C171.864 60.4082 171.722 59.9544 171.442 59.582C171.161 59.2096 170.81 59.0234 170.387 59.0234C169.964 59.0234 169.608 59.2096 169.33 59.582C169.052 59.9544 168.91 60.414 168.91 60.9639C168.91 61.5137 169.049 61.9821 169.33 62.3545C169.608 62.7268 169.962 62.913 170.387 62.913C170.813 62.913 171.161 62.7268 171.442 62.3545Z" fill="white"/>
<path d="M180.837 57.8657V61.4964C180.837 62.2877 180.646 62.9277 180.261 63.4164C179.876 63.9052 179.377 64.1525 178.763 64.1525C178.149 64.1525 177.651 63.9139 177.278 63.4397C176.904 62.9655 176.719 62.3313 176.719 61.54V57.8657H177.782V61.4964C177.782 61.9211 177.874 62.2644 178.063 62.5233C178.251 62.7822 178.494 62.9131 178.798 62.9131C179.102 62.9131 179.343 62.7822 179.528 62.5233C179.713 62.2644 179.806 61.9211 179.806 61.4964V57.8657H180.837Z" fill="white"/>
<path d="M184.889 57.8657H187.038C187.55 57.8657 187.967 58.0519 188.286 58.4243C188.607 58.7967 188.767 59.2796 188.767 59.876C188.767 60.3123 188.677 60.6964 188.494 61.028C188.315 61.3596 188.069 61.5982 187.756 61.7437L188.969 64.0623H187.756L186.678 61.9298H185.937V64.0623H184.886V57.8657H184.889ZM185.94 59.009V60.8854H186.907C187.159 60.8854 187.359 60.7982 187.504 60.6236C187.652 60.4491 187.724 60.2222 187.724 59.9458C187.724 59.6694 187.652 59.4425 187.504 59.2679C187.359 59.0934 187.159 59.0061 186.907 59.0061H185.94V59.009Z" fill="white"/>
<path d="M198.689 61.7437V64.0623H197.638V57.8657H201.104V59.0439H198.689V60.6033H200.763V61.7466H198.689V61.7437Z" fill="white"/>
<path d="M208.898 57.8657V61.4964C208.898 62.2877 208.707 62.9277 208.322 63.4164C207.937 63.9052 207.438 64.1525 206.824 64.1525C206.211 64.1525 205.712 63.9139 205.339 63.4397C204.965 62.9655 204.78 62.3313 204.78 61.54V57.8657H205.843V61.4964C205.843 61.9211 205.935 62.2644 206.124 62.5233C206.312 62.7822 206.555 62.9131 206.859 62.9131C207.163 62.9131 207.404 62.7822 207.589 62.5233C207.774 62.2644 207.867 61.9211 207.867 61.4964V57.8657H208.898Z" fill="white"/>
<path d="M214.945 59.0439V64.0623H213.903V59.0439H212.501V57.8657H216.344V59.0439H214.945Z" fill="white"/>
<path d="M224.072 57.8657V61.4964C224.072 62.2877 223.88 62.9277 223.495 63.4164C223.11 63.9052 222.612 64.1525 221.998 64.1525C221.384 64.1525 220.886 63.9139 220.512 63.4397C220.138 62.9655 219.953 62.3313 219.953 61.54V57.8657H221.016V61.4964C221.016 61.9211 221.109 62.2644 221.297 62.5233C221.485 62.7822 221.728 62.9131 222.033 62.9131C222.337 62.9131 222.577 62.7822 222.762 62.5233C222.948 62.2644 223.04 61.9211 223.04 61.4964V57.8657H224.072Z" fill="white"/>
<path d="M228.12 57.8657H230.269C230.782 57.8657 231.199 58.0519 231.517 58.4243C231.839 58.7967 231.998 59.2796 231.998 59.876C231.998 60.3123 231.908 60.6964 231.726 61.028C231.546 61.3596 231.3 61.5982 230.987 61.7437L232.201 64.0623H230.987L229.91 61.9298H229.169V64.0623H228.117V57.8657H228.12ZM229.171 59.009V60.8854H230.139C230.391 60.8854 230.591 60.7982 230.735 60.6236C230.883 60.4491 230.955 60.2222 230.955 59.9458C230.955 59.6694 230.883 59.4425 230.735 59.2679C230.591 59.0934 230.391 59.0061 230.139 59.0061H229.171V59.009Z" fill="white"/>
<path d="M235.948 64.0652V57.8687H239.484V59.0469H237V60.3298H239.14V61.4266H237V62.8957H239.554V64.0652H235.951H235.948Z" fill="white"/>
<path d="M249.361 62.7764C249.483 62.9335 249.544 63.1226 249.544 63.3466C249.544 63.5706 249.483 63.7539 249.361 63.9139C249.239 64.0739 249.092 64.1525 248.918 64.1525C248.744 64.1525 248.597 64.0739 248.472 63.9168C248.347 63.7597 248.287 63.5706 248.287 63.3466C248.287 63.1226 248.347 62.9306 248.472 62.7764C248.597 62.6222 248.744 62.5408 248.918 62.5408C249.092 62.5408 249.239 62.6193 249.361 62.7764ZM248.307 57.8687H249.52L249.295 61.9677H248.533L248.307 57.8687Z" fill="white"/>
<path d="M157.934 36.306V33.2165H172.8V29.1785H157.934V25.9901H173.599V21.0503H151.84V25.9901V32.111V35.2994V41.2458H173.973V36.306H157.934Z" fill="white"/>
</svg>
